<svg width="20" height="20" viewBox="0 0 20 20" fill="none" xmlns="http://www.w3.org/2000/svg">
<path d="M10.0002 3.33301C6.35572 3.33301 3.3335 6.35523 3.3335 9.99967C3.3335 13.6441 6.35572 16.6663 10.0002 16.6663C13.6446 16.6663 16.6668 13.6441 16.6668 9.99967C16.6668 6.35523 13.6446 3.33301 10.0002 3.33301ZM10.0002 13.9997C9.7335 13.9997 9.55572 13.8219 9.55572 13.5552C9.55572 13.2886 9.7335 13.1108 10.0002 13.1108C10.2668 13.1108 10.4446 13.2886 10.4446 13.5552C10.4446 13.8219 10.2668 13.9997 10.0002 13.9997ZM10.4446 11.5997C10.4446 11.8663 10.2668 12.133 10.0002 12.133C9.7335 12.133 9.55572 11.8663 9.55572 11.5997V6.53301C9.55572 6.26634 9.7335 5.99967 10.0002 5.99967C10.2668 5.99967 10.4446 6.26634 10.4446 6.53301V11.5997Z" fill="#AE2917"/>
</svg>
